<svg width="2068" height="1510" xmlns="http://www.w3.org/2000/svg" xmlns:xlink="http://www.w3.org/1999/xlink" overflow="hidden"><defs><clipPath id="clip0"><rect x="1069" y="704" width="2068" height="1510"/></clipPath></defs><g clip-path="url(#clip0)" transform="translate(-1069 -704)"><path d="M1115.5 1168C1115.5 937.421 1557.62 750.5 2103 750.5 2648.38 750.5 3090.5 937.421 3090.5 1168 3090.5 1398.58 2648.38 1585.5 2103 1585.5 1557.62 1585.5 1115.5 1398.58 1115.5 1168Z" stroke="#FFFFFF" stroke-width="92.8125" stroke-miterlimit="8" fill="none" fill-rule="evenodd"/><text fill="#FFFFFF" font-family="Arial Black,Arial Black_MSFontService,sans-serif" font-weight="900" font-size="303" transform="matrix(1 0 0 1 1589.75 1952)">Vision</text><path d="M1776.5 1278C1776.5 1108.17 1922.68 970.5 2103 970.5 2283.32 970.5 2429.5 1108.17 2429.5 1278 2429.5 1447.83 2283.32 1585.5 2103 1585.5 1922.68 1585.5 1776.5 1447.83 1776.5 1278Z" stroke="#FFFFFF" stroke-width="92.8125" stroke-miterlimit="8" fill="none" fill-rule="evenodd"/></g></svg>